<svg width="50" height="32" viewBox="0 0 50 32" fill="none" xmlns="http://www.w3.org/2000/svg">
<path d="M31.5596 5.59961H18.3486V26.4885H31.5596V5.59961Z" fill="#FF5F00"/>
<path d="M19.7248 16.0882C19.7248 11.9993 21.6514 8.17706 24.9541 5.68817C18.9908 1.15484 10.367 2.13262 5.68808 7.9104C1.00918 13.6882 2.01836 22.0437 7.98166 26.5771C12.9358 30.3993 19.9083 30.3993 24.9541 26.5771C21.6514 23.9993 19.7248 20.0882 19.7248 16.0882Z" fill="#EB001B"/>
<path d="M45.7799 24.2667V23.8223H45.9634V23.7334H45.5046V23.8223H45.6881L45.7799 24.2667ZM46.6973 24.2667V23.7334H46.6056L46.4221 24.089L46.2386 23.7334H46.1468V24.2667H46.2386V23.9112L46.4221 24.2667H46.5138L46.6973 23.9112V24.2667Z" fill="#F79E1B"/>
<path d="M47.156 16.0892C47.156 23.3781 41.0092 29.3336 33.4863 29.3336C30.4587 29.3336 27.4312 28.3558 25.0459 26.4892C31.0092 21.9558 32.0184 13.6003 27.3395 7.8225C26.6973 7.0225 25.8716 6.2225 25.0459 5.60028C31.0092 1.06695 39.6331 2.04473 44.312 7.8225C46.0551 10.1336 47.156 13.0669 47.156 16.0892Z" fill="#F79E1B"/>
</svg>
