<svg height="300" viewBox="-6 0 399 399.97427" width="300" xmlns="http://www.w3.org/2000/svg" version="1.1" xmlns:xlink="http://www.w3.org/1999/xlink" xmlns:svgjs="http://svgjs.dev/svgjs"><g width="100%" height="100%" transform="matrix(1,0,0,1,0,0)"><path d="m172.085938 7.867188c12.292968-10.484376 30.371093-10.488282 42.671874-.019532l167.898438 142.171875-167.769531 142.292969c-12.289063 10.480469-30.371094 10.488281-42.667969.015625l-167.902344-142.167969zm-138.597657 392.105468c-7.222656.007813-14.246093-2.367187-19.984375-6.757812l95.703125-97.886719c1.773438-1.78125 2.453125-4.382813 1.78125-6.804687-.671875-2.425782-2.589843-4.300782-5.03125-4.917969-2.4375-.617188-5.019531.121093-6.761719 1.9375l-94.808593 96.972656c-2.566407-4.777344-3.90625-10.117187-3.898438-15.542969v-201.710937l162.679688 137.75c17.515625 14.914062 43.269531 14.902343 60.773437-.023438l162.546875-137.859375v201.84375c.003907 5.445313-1.34375 10.804688-3.925781 15.59375l-95.375-97.039062c-2.714844-2.734375-7.128906-2.761719-9.875-.058594-2.746094 2.699219-2.796875 7.113281-.109375 9.871094l96.226563 97.90625c-5.730469 4.371094-12.738282 6.734375-19.941407 6.726562zm0 0" fill="#ffffff" fill-opacity="1" data-original-color="#000000ff" stroke="none" stroke-opacity="1"/></g></svg>