<svg id="Layer_1" data-name="Layer 1" xmlns="http://www.w3.org/2000/svg" xmlns:xlink="http://www.w3.org/1999/xlink" viewBox="0 0 441.21 107.74"><defs><style>.cls-1,.cls-2,.cls-3{fill:none;}.cls-2{clip-rule:evenodd;}.cls-3{fill-rule:evenodd;}.cls-4{clip-path:url(#clip-path);}.cls-5{fill:#253b80;}.cls-6{fill:#179bd7;}.cls-7{fill:#222d65;}.cls-8{clip-path:url(#clip-path-4);}</style><clipPath id="clip-path" transform="translate(-31.15 -191.14)"><rect class="cls-1" x="31.15" y="191.14" width="442.69" height="117.81"/></clipPath><clipPath id="clip-path-4" transform="translate(-31.15 -191.14)"><polyline class="cls-2" points="473.85 191.14 473.85 308.95 31.15 308.95 31.15 191.14"/></clipPath></defs><title>PayPal-Color</title><path class="cls-5" d="M199,238.1c-1.34,8.76-8,8.76-14.5,8.76h-3.69l2.59-16.36a2,2,0,0,1,2-1.72h1.69c4.4,0,8.56,0,10.71,2.51C199.05,232.79,199.44,235,199,238.1Zm-2.82-22.87H171.72a3.41,3.41,0,0,0-3.36,2.86l-9.87,62.61a2,2,0,0,0,2,2.35h11.66a3.39,3.39,0,0,0,3.35-2.86l2.66-16.89a3.4,3.4,0,0,1,3.35-2.87h7.73c16.09,0,25.37-7.78,27.79-23.2,1.09-6.75.05-12-3.11-15.76C210.46,217.39,204.3,215.23,196.13,215.23Z" transform="translate(-31.15 -191.14)"/><path class="cls-5" d="M252.82,260.57a13,13,0,0,1-13.19,11.17c-3.4,0-6.11-1.09-7.85-3.16a9.92,9.92,0,0,1-1.84-8.21A13.08,13.08,0,0,1,243,249.12a9.87,9.87,0,0,1,7.8,3.18A10.12,10.12,0,0,1,252.82,260.57Zm16.3-22.75h-11.7a2,2,0,0,0-2,1.71l-.51,3.27-.82-1.18c-2.53-3.68-8.18-4.9-13.81-4.9-12.92,0-24,9.78-26.11,23.51-1.11,6.85.48,13.39,4.36,18,3.56,4.2,8.66,5.95,14.73,5.95a22.35,22.35,0,0,0,16.18-6.7l-.52,3.25a2,2,0,0,0,2,2.36h10.54a3.39,3.39,0,0,0,3.35-2.87l6.32-40A2,2,0,0,0,269.12,237.82Z" transform="translate(-31.15 -191.14)"/><path class="cls-5" d="M331.38,237.82H319.64a3.38,3.38,0,0,0-2.81,1.48l-16.21,23.87-6.87-22.93a3.39,3.39,0,0,0-3.25-2.42H279a2,2,0,0,0-1.93,2.69l12.94,38-12.17,17.17a2,2,0,0,0,1.66,3.22h11.74a3.41,3.41,0,0,0,2.79-1.46L333.06,241A2,2,0,0,0,331.38,237.82Z" transform="translate(-31.15 -191.14)"/><path class="cls-6" d="M373.1,238.1c-1.33,8.76-8,8.76-14.5,8.76h-3.68l2.59-16.36a2,2,0,0,1,2-1.72h1.69c4.41,0,8.57,0,10.72,2.51C373.2,232.79,373.59,235,373.1,238.1Zm-2.82-22.87H345.87a3.4,3.4,0,0,0-3.35,2.86l-9.88,62.61a2,2,0,0,0,2,2.35h12.53a2.37,2.37,0,0,0,2.34-2l2.8-17.75a3.4,3.4,0,0,1,3.35-2.87h7.73c16.08,0,25.36-7.78,27.79-23.2,1.1-6.75,0-12-3.12-15.76C384.61,217.39,378.46,215.23,370.28,215.23Z" transform="translate(-31.15 -191.14)"/><path class="cls-6" d="M427,260.57a13,13,0,0,1-13.19,11.17c-3.39,0-6.11-1.09-7.86-3.16a10,10,0,0,1-1.83-8.21,13.09,13.09,0,0,1,13.1-11.25,9.87,9.87,0,0,1,7.8,3.18A10.09,10.09,0,0,1,427,260.57Zm16.29-22.75H431.58a2,2,0,0,0-2,1.71l-.51,3.27-.83-1.18c-2.53-3.68-8.17-4.9-13.8-4.9-12.92,0-23.95,9.78-26.1,23.51-1.12,6.85.47,13.39,4.35,18,3.57,4.2,8.66,5.95,14.73,5.95a22.35,22.35,0,0,0,16.18-6.7l-.52,3.25a2,2,0,0,0,2,2.36h10.53a3.39,3.39,0,0,0,3.35-2.87l6.32-40A2,2,0,0,0,443.26,237.82Z" transform="translate(-31.15 -191.14)"/><path class="cls-6" d="M457.05,217,447,280.7a2,2,0,0,0,2,2.35h10.08a3.39,3.39,0,0,0,3.35-2.86l9.88-62.61a2,2,0,0,0-2-2.35H459.05A2,2,0,0,0,457.05,217Z" transform="translate(-31.15 -191.14)"/><path class="cls-5" d="M57.09,295.22,59,283.36l-4.16-.1H34.94l13.8-87.51a1.26,1.26,0,0,1,.39-.69,1.14,1.14,0,0,1,.74-.27H83.35c11.12,0,18.79,2.32,22.8,6.88a15.65,15.65,0,0,1,3.65,6.85,24.51,24.51,0,0,1,0,9.44l0,.27v2.41l1.88,1.07a13.14,13.14,0,0,1,3.8,2.9,13.48,13.48,0,0,1,3.09,6.92,29.37,29.37,0,0,1-.44,10A35.28,35.28,0,0,1,114,252.93a23.4,23.4,0,0,1-6.51,7.14,26.63,26.63,0,0,1-8.78,4,43.84,43.84,0,0,1-11,1.26H85.13a7.86,7.86,0,0,0-7.75,6.62l-.2,1.07-3.3,20.9-.15.77a.61.61,0,0,1-.2.44.54.54,0,0,1-.35.13Z" transform="translate(-31.15 -191.14)"/><path class="cls-6" d="M113.44,218.51c-.1.64-.22,1.29-.34,2C108.68,243.15,93.57,251,74.27,251H64.45a4.77,4.77,0,0,0-4.72,4l-5,31.9L53.28,296a2.51,2.51,0,0,0,2.48,2.9H73.18a4.2,4.2,0,0,0,4.15-3.53l.17-.89,3.28-20.82.21-1.14A4.19,4.19,0,0,1,85.13,269h2.61c16.88,0,30.1-6.86,34-26.69,1.61-8.29.78-15.21-3.49-20.07A16.61,16.61,0,0,0,113.44,218.51Z" transform="translate(-31.15 -191.14)"/><path class="cls-7" d="M108.82,216.67c-.68-.2-1.37-.38-2.09-.54s-1.45-.3-2.21-.42a54.38,54.38,0,0,0-8.66-.63H69.61a4.25,4.25,0,0,0-1.81.41,4.16,4.16,0,0,0-2.32,3.13L59.89,254l-.16,1a4.77,4.77,0,0,1,4.72-4h9.82c19.3,0,34.41-7.84,38.83-30.51.13-.67.24-1.32.34-2a23.83,23.83,0,0,0-3.63-1.53Z" transform="translate(-31.15 -191.14)"/><path class="cls-5" d="M65.48,218.62a4.17,4.17,0,0,1,4.13-3.53H95.86a54.38,54.38,0,0,1,8.66.63c.76.12,1.5.26,2.21.41s1.41.34,2.09.54l1,.31a23.83,23.83,0,0,1,3.63,1.53c1.32-8.38,0-14.08-4.54-19.25-5-5.69-14-8.12-25.54-8.12H49.87a4.78,4.78,0,0,0-4.73,4L31.19,283.6A2.88,2.88,0,0,0,34,286.92H54.7L59.89,254Z" transform="translate(-31.15 -191.14)"/></svg>