<svg width="13" height="13" viewBox="0 0 13 13" fill="none" xmlns="http://www.w3.org/2000/svg">
<path d="M13 6.5C13 10.0899 10.0899 13 6.5 13C2.91015 13 0 10.0899 0 6.5C0 2.91015 2.91015 0 6.5 0C10.0899 0 13 2.91015 13 6.5ZM9.77464 4.03786C9.53666 3.79988 9.15083 3.79988 8.91285 4.03786C8.9071 4.0436 8.90171 4.04969 8.89669 4.05609L6.07539 7.6511L4.3744 5.95012C4.13642 5.71214 3.75059 5.71214 3.51261 5.95012C3.27464 6.18809 3.27464 6.57393 3.51261 6.81191L5.66285 8.96214C5.90083 9.20012 6.28666 9.20012 6.52464 8.96214C6.52994 8.95684 6.53494 8.95126 6.53962 8.9454L9.78329 4.89082C10.0126 4.65223 10.0097 4.27291 9.77464 4.03786Z" fill="#0EB400"/>
</svg>
