<svg width="50" height="32" viewBox="0 0 66 46" fill="none" xmlns="http://www.w3.org/2000/svg">
    <path d="M0.5 3C0.5 1.61929 1.61929 0.5 3 0.5H63C64.3807 0.5 65.5 1.61929 65.5 3V43C65.5 44.3807 64.3807 45.5 63 45.5H3C1.61929 45.5 0.5 44.3807 0.5 43V3Z" fill="#0742A6" stroke="#0742A6"/>
    <path fill-rule="evenodd" clip-rule="evenodd" d="M30.0224 29.744H26.4827L28.6966 16.4119H32.2361L30.0224 29.744Z" fill="white"/>
    <path fill-rule="evenodd" clip-rule="evenodd" d="M42.854 16.7378C42.1558 16.4681 41.0484 16.1702 39.6791 16.1702C36.1836 16.1702 33.722 17.9856 33.7069 20.5809C33.6779 22.4958 35.4693 23.5594 36.8092 24.1979C38.1786 24.8503 38.6441 25.2761 38.6441 25.8577C38.6302 26.7508 37.5375 27.1626 36.5184 27.1626C35.1052 27.1626 34.348 26.9503 33.1973 26.4534L32.7312 26.2404L32.2358 29.2331C33.066 29.6015 34.5956 29.9284 36.1836 29.9427C39.8977 29.9427 42.3157 28.1554 42.3443 25.3896C42.3584 23.8719 41.4125 22.709 39.3731 21.7588C38.1351 21.1487 37.3769 20.7374 37.3769 20.1133C37.3914 19.5458 38.0182 18.9647 39.4157 18.9647C40.5664 18.9362 41.4119 19.2056 42.0524 19.4752L42.3726 19.6167L42.854 16.7378Z" fill="white"/>
    <path fill-rule="evenodd" clip-rule="evenodd" d="M49.1899 16.4119H51.9278L54.7835 29.7438H51.5061C51.5061 29.7438 51.1853 28.212 51.0837 27.7439H46.539C46.4076 28.0983 45.7961 29.7438 45.7961 29.7438H42.082L47.3398 17.5181C47.7041 16.6528 48.3456 16.4119 49.1899 16.4119ZM48.9717 21.2907C48.9717 21.2907 47.85 24.255 47.5585 25.0209H50.5007C50.3551 24.3543 49.6848 21.1631 49.6848 21.1631L49.4374 20.0143C49.3333 20.3101 49.1826 20.7168 49.081 20.9911C49.0121 21.1771 48.9658 21.3022 48.9717 21.2907Z" fill="white"/>
    <path fill-rule="evenodd" clip-rule="evenodd" d="M23.5261 16.4119L20.0595 25.5031L19.6807 23.6593C19.0398 21.5318 17.0299 19.2203 14.7869 18.0709L17.9621 29.7299H21.7052L27.269 16.4119H23.5261V16.4119Z" fill="white"/>
    <path fill-rule="evenodd" clip-rule="evenodd" d="M16.8407 16.4119H11.1457L11.0874 16.6813C15.5299 17.7876 18.472 20.4545 19.6808 23.6599L18.4428 17.5326C18.239 16.6811 17.6126 16.44 16.8407 16.4119Z" fill="white"/>
</svg>