<svg width="23" height="21" viewBox="0 0 23 21" fill="none" xmlns="http://www.w3.org/2000/svg">
<path d="M10.6489 0.92706C10.9482 0.00574805 12.2517 0.00575029 12.551 0.927062L14.4288 6.70639C14.5627 7.11841 14.9467 7.39737 15.3799 7.39737H21.4566C22.4253 7.39737 22.8281 8.63698 22.0444 9.20639L17.1282 12.7782C16.7777 13.0329 16.6311 13.4842 16.7649 13.8962L18.6428 19.6756C18.9421 20.5969 17.8876 21.363 17.1039 20.7936L12.1877 17.2218C11.8373 16.9671 11.3627 16.9671 11.0122 17.2218L6.096 20.7936C5.31229 21.363 4.2578 20.5969 4.55716 19.6756L6.43497 13.8962C6.56884 13.4842 6.42218 13.0329 6.0717 12.7782L1.15552 9.20639C0.371806 8.63698 0.774581 7.39737 1.7433 7.39737H7.82003C8.25326 7.39737 8.63721 7.11841 8.77109 6.70639L10.6489 0.92706Z" fill="#FFA500"/>
</svg>
